<svg width="72" height="72" viewBox="0 0 72 72" fill="none" xmlns="http://www.w3.org/2000/svg">
<circle cx="35.5193" cy="36.4504" r="35.5193" fill="#E9F6EE"/>
<g clip-path="url(#clip0_14287_38743)">
<path d="M53.0636 26.0039L55.0036 24.0642C55.3259 23.7416 55.4321 23.2613 55.2755 22.8331C55.119 22.4047 54.728 22.1062 54.2733 22.0677L50.6744 21.7641L50.3707 18.1652C50.3326 17.7108 50.0338 17.3198 49.6057 17.1633C49.1775 17.0064 48.6971 17.1126 48.3746 17.4352L46.4346 19.3749C43.2974 17.4514 39.7103 16.4385 36 16.4385C30.6579 16.4385 25.6353 18.5189 21.8578 22.2963C18.0804 26.0738 16 31.0964 16 36.4385C16 41.7806 18.0804 46.8032 21.8578 50.5806C25.6353 54.3581 30.6579 56.4385 36 56.4385C41.3421 56.4385 46.3647 54.3581 50.1422 50.5806C53.9196 46.8032 56 41.7806 56 36.4385C56 32.7281 54.9871 29.1414 53.0636 26.0039ZM48.4219 22.9473C48.4701 23.5167 48.9218 23.9684 49.4912 24.0166L51.5618 24.1912L48.7591 26.9939L45.7025 26.736L45.4446 23.6794L48.2473 20.8766L48.4219 22.9473ZM39.9844 36.4385C39.9844 38.6354 38.197 40.4229 36 40.4229C33.803 40.4229 32.0156 38.6354 32.0156 36.4385C32.0156 34.2415 33.803 32.4541 36 32.4541C36.6729 32.4541 37.3068 32.6223 37.8631 32.918L35.1714 35.6099C34.7137 36.0674 34.7137 36.8093 35.1714 37.267C35.4 37.4959 35.7 37.6104 36 37.6104C36.3 37.6104 36.6 37.4959 36.8286 37.267L39.5205 34.5754C39.8162 35.1317 39.9844 35.7656 39.9844 36.4385ZM39.5666 31.2145C38.5504 30.5187 37.322 30.1104 36 30.1104C32.5106 30.1104 29.6719 32.9491 29.6719 36.4385C29.6719 39.9279 32.5106 42.7666 36 42.7666C39.4894 42.7666 42.3281 39.9279 42.3281 36.4385C42.3281 35.1165 41.9198 33.8881 41.224 32.8719L44.5699 29.5259C46.0986 31.4174 47.0156 33.8228 47.0156 36.4385C47.0156 42.5124 42.0739 47.4541 36 47.4541C29.9261 47.4541 24.9844 42.5124 24.9844 36.4385C24.9844 30.3646 29.9261 25.4229 36 25.4229C38.6157 25.4229 41.0211 26.3399 42.9125 27.8685L39.5666 31.2145ZM48.4847 48.9232C45.1501 52.2582 40.7162 54.0947 36 54.0947C31.2838 54.0947 26.8499 52.2582 23.5153 48.9232C20.1803 45.5886 18.3438 41.1547 18.3438 36.4385C18.3438 31.7223 20.1803 27.2884 23.5153 23.9537C26.8499 20.6188 31.2838 18.7822 36 18.7822C39.0853 18.7822 42.0739 19.5748 44.7244 21.0851L43.4026 22.4068C43.189 22.6204 43.0673 22.9067 43.0596 23.2054C43.0587 23.2482 43.0599 23.2909 43.0633 23.3339L43.2211 25.2037C41.1376 23.8597 38.6584 23.0791 36 23.0791C28.6337 23.0791 22.6406 29.0721 22.6406 36.4385C22.6406 43.8048 28.6337 49.7979 36 49.7979C43.3663 49.7979 49.3594 43.8048 49.3594 36.4385C49.3594 33.7801 48.5787 31.3008 47.2347 29.2174L49.1046 29.3752C49.1375 29.3776 49.1705 29.3792 49.2031 29.3792C49.2086 29.3792 49.2144 29.3785 49.2199 29.3782C49.2355 29.3782 49.2507 29.377 49.2663 29.3761C49.2916 29.3746 49.3173 29.373 49.3423 29.37C49.3578 29.3679 49.3734 29.3654 49.389 29.363C49.4137 29.359 49.4381 29.3544 49.4625 29.3489C49.4781 29.3453 49.4933 29.3413 49.5086 29.3373C49.5324 29.3309 49.5559 29.3236 49.5794 29.3157C49.5947 29.3105 49.6096 29.3053 49.6246 29.2995C49.6475 29.2906 49.67 29.2809 49.6926 29.2702C49.707 29.2638 49.7213 29.2574 49.7357 29.2501C49.7582 29.2385 49.7802 29.2256 49.8019 29.2128C49.815 29.2049 49.8281 29.1976 49.8409 29.1896C49.8641 29.1744 49.8864 29.1579 49.9087 29.1411C49.9191 29.1332 49.9297 29.1262 49.9398 29.1179C49.9716 29.0923 50.0024 29.0651 50.0317 29.0358L51.3534 27.7141C52.8637 30.3646 53.6562 33.3531 53.6562 36.4385C53.6562 41.1547 51.8197 45.5886 48.4847 48.9232Z" fill="#34D27B"/>
</g>
<defs>
<clipPath id="clip0_14287_38743">
<rect width="40" height="40" fill="white" transform="translate(16 16.4385)"/>
</clipPath>
</defs>
</svg>
