<svg width="72" height="72" viewBox="0 0 72 72" fill="none" xmlns="http://www.w3.org/2000/svg">
<circle cx="35.5193" cy="36.4504" r="35.5193" fill="#7879F1" fill-opacity="0.06"/>
<g clip-path="url(#clip0_14287_38798)">
<path d="M51.8864 54.9311H16.1133C15.4984 54.9311 15 54.4327 15 53.8179C15 53.203 15.4984 52.7046 16.1133 52.7046H51.8864C52.5013 52.7046 52.9997 53.203 52.9997 53.8179C52.9997 54.4327 52.5013 54.9311 51.8864 54.9311Z" fill="#7879F1"/>
<path d="M22.8671 54.9311H18.4141C17.7992 54.9311 17.3008 54.4326 17.3008 53.8178V45.6538C17.3008 44.6307 18.1331 43.7983 19.1562 43.7983H22.125C23.1481 43.7983 23.9804 44.6307 23.9804 45.6538V53.8178C23.9804 54.4326 23.482 54.9311 22.8671 54.9311ZM19.5273 52.7045H21.7539V46.0249H19.5273V52.7045ZM22.125 46.0249H22.1257H22.125Z" fill="#7879F1"/>
<path d="M31.7729 54.931H27.3198C26.705 54.931 26.2065 54.4326 26.2065 53.8178V42.9819C26.2065 41.9588 27.0389 41.1265 28.062 41.1265H31.0307C32.0538 41.1265 32.8862 41.9588 32.8862 42.9819V53.8178C32.8862 54.4326 32.3877 54.931 31.7729 54.931ZM28.4331 52.7045H30.6596V43.353H28.4331V52.7045ZM31.0307 43.353H31.0315H31.0307Z" fill="#7879F1"/>
<path d="M40.6792 54.931H36.2261C35.6112 54.931 35.1128 54.4326 35.1128 53.8177V38.8999C35.1128 37.8768 35.9451 37.0444 36.9682 37.0444H39.937C40.9601 37.0444 41.7924 37.8768 41.7924 38.8999V53.8177C41.7924 54.4326 41.294 54.931 40.6792 54.931ZM37.3393 52.7045H39.5659V39.271H37.3393V52.7045ZM39.937 39.271H39.9377H39.937Z" fill="#7879F1"/>
<path d="M49.5854 54.9312H45.1323C44.5175 54.9312 44.019 54.4328 44.019 53.8179V31.4783C44.019 30.4552 44.8514 29.6228 45.8745 29.6228H48.8432C49.8663 29.6228 50.6987 30.4552 50.6987 31.4783V53.8179C50.6987 54.4328 50.2002 54.9312 49.5854 54.9312ZM46.2456 52.7047H48.4721V31.8493H46.2456V52.7047ZM48.8432 31.8493H48.844H48.8432Z" fill="#7879F1"/>
<path d="M16.1133 40.8525C15.4984 40.8525 15 40.354 15 39.7392C15 39.1244 15.4984 38.626 16.1133 38.626C22.6598 38.626 29.7875 36.2421 36.1834 31.9134C42.0675 27.9313 46.7562 22.7108 49.0471 17.5905C49.2983 17.0293 49.9568 16.7778 50.518 17.0291C51.0792 17.2801 51.3306 17.9387 51.0795 18.4999C48.6239 23.9881 43.6493 29.5493 37.4314 33.7574C30.6709 38.3327 23.0999 40.8525 16.1133 40.8525Z" fill="#7879F1"/>
<path d="M51.8854 25.9618C51.3938 25.9618 50.944 25.6338 50.8108 25.1363L49.2759 19.4081L43.5477 20.943C42.9536 21.1023 42.3433 20.7498 42.1842 20.1559C42.0251 19.562 42.3775 18.9515 42.9714 18.7924L49.775 16.9694C50.3691 16.8102 50.9793 17.1627 51.1384 17.7565L52.9614 24.5601C53.1206 25.154 52.7682 25.7645 52.1743 25.9236C52.0777 25.9494 51.9808 25.9618 51.8854 25.9618Z" fill="#7879F1"/>
</g>
<defs>
<clipPath id="clip0_14287_38798">
<rect width="38" height="38" fill="white" transform="translate(15 16.9312)"/>
</clipPath>
</defs>
</svg>
