<svg xmlns="http://www.w3.org/2000/svg">

<symbol id="logo" width="35" height="35" viewBox="0 0 35 35">
  <path d="M31.5666 0.689453H27.2183C25.8766 0.689453 24.7888 1.74845 24.7888 3.05488V7.28861C24.7888 8.59504 25.8766 9.65411 27.2183 9.65411H31.5666C32.9084 9.65411 33.9961 8.59504 33.9961 7.28861V3.05488C33.9961 1.74845 32.9084 0.689453 31.5666 0.689453Z" fill="#FD695A"/>
  <path d="M14.5381 9.90644H18.3565C19.9366 9.99388 21.4396 10.6 22.6204 11.6259L22.7636 11.7809C23.8228 12.9272 24.4462 14.3926 24.5296 15.9324V19.6347C24.5296 20.2797 24.7928 20.8983 25.2612 21.3544C25.7297 21.8105 26.365 22.0667 27.0275 22.0667H31.4982C32.1607 22.0667 32.796 21.8105 33.2645 21.3544C33.7329 20.8983 33.9961 20.2797 33.9961 19.6347V15.2818C33.9961 14.6368 33.7329 14.0182 33.2645 13.5621C32.796 13.106 32.1607 12.8498 31.4982 12.8498H27.6957C26.1142 12.7685 24.6092 12.1615 23.4318 11.1303L23.2727 10.9908C22.2169 9.84245 21.594 8.37831 21.5067 6.83929V3.1215C21.5067 2.47652 21.2436 1.8579 20.7752 1.4018C20.3066 0.945705 19.6713 0.689453 19.0088 0.689453H14.5381C13.8756 0.689453 13.2403 0.945705 12.7719 1.4018C12.3035 1.8579 12.0403 2.47652 12.0403 3.1215V7.47447C12.0403 8.11944 12.3035 8.738 12.7719 9.1941C13.2403 9.65019 13.8756 9.90644 14.5381 9.90644Z" fill="#FD695A"/>
  <path d="M32.2142 25.1472H28.4317C26.8572 25.0477 25.3654 24.4117 24.2079 23.3465L23.7824 22.9238C22.7332 21.765 22.1157 20.2837 22.033 18.7273V14.9693C22.0289 14.3186 21.7669 13.6957 21.3037 13.2355C20.8405 12.7753 20.2136 12.515 19.5586 12.511H15.7761C14.2146 12.4456 12.7232 11.8485 11.5524 10.8199L11.1269 10.3971C10.0776 9.23837 9.46013 7.75713 9.37741 6.20065V2.45839C9.37741 1.80638 9.1167 1.18106 8.65272 0.720002C8.18868 0.259011 7.55932 0 6.90306 0H2.47435C1.81816 0 1.18873 0.259011 0.724755 0.720002C0.260708 1.18106 0 1.80638 0 2.45839V6.85832C0 7.51032 0.260708 8.13564 0.724755 8.59663C1.18873 9.05769 1.81816 9.3167 2.47435 9.3167H6.24112C7.83165 9.38897 9.34731 10.009 10.528 11.0704L10.9535 11.4932C11.9994 12.654 12.6164 14.134 12.7029 15.6895V19.4476C12.707 20.0983 12.969 20.7212 13.4322 21.1813C13.8953 21.6415 14.5223 21.9018 15.1772 21.9059H18.9597C20.509 22.0023 21.9803 22.6145 23.1363 23.644L23.5618 24.0668C24.6077 25.2275 25.2247 26.7076 25.3112 28.2632V32.0212C25.3153 32.6719 25.5773 33.2948 26.0405 33.7549C26.5036 34.2151 27.1306 34.4754 27.7855 34.4795H32.23C32.885 34.4754 33.512 34.2151 33.9751 33.7549C34.4382 33.2948 34.7003 32.6719 34.7044 32.0212V27.6055C34.7002 26.9521 34.436 26.3268 33.9695 25.8662C33.503 25.4057 32.8719 25.1471 32.2142 25.1472Z" fill="#FD695A"/>
  <path d="M7.29917 24.8252H2.61635C1.17138 24.8252 0 25.8843 0 27.1907V31.4244C0 32.7309 1.17138 33.7899 2.61635 33.7899H7.29917C8.74414 33.7899 9.91552 32.7309 9.91552 31.4244V27.1907C9.91552 25.8843 8.74414 24.8252 7.29917 24.8252Z" fill="#FD695A"/>
  <path d="M19.458 24.5731H15.6554C14.074 24.4918 12.5689 23.8849 11.3915 22.8536L11.2325 22.7142C10.1699 21.5577 9.54661 20.0815 9.46644 18.5317V14.8139C9.45858 14.1875 9.20276 13.5882 8.75224 13.1408C8.30172 12.6936 7.69127 12.4328 7.04811 12.4128H2.49787C1.83537 12.4128 1.20006 12.6691 0.731624 13.1252C0.263185 13.5813 0 14.1998 0 14.8449V19.1978C0 19.8428 0.263185 20.4614 0.731624 20.9175C1.20006 21.3736 1.83537 21.6298 2.49787 21.6298H6.31627C7.89631 21.7173 9.39937 22.3233 10.5802 23.3493L10.7234 23.5042C11.7826 24.6506 12.4059 26.1159 12.4893 27.6557V31.358C12.4893 31.6787 12.5545 31.9962 12.681 32.2922C12.8076 32.5884 12.993 32.8572 13.2266 33.0832C13.4602 33.3092 13.7375 33.4881 14.0424 33.6094C14.3473 33.7307 14.6738 33.7921 15.0031 33.79H19.458C20.1204 33.79 20.7558 33.5338 21.2242 33.0778C21.6927 32.6217 21.9558 32.003 21.9558 31.358V27.0051C21.9558 26.3601 21.6927 25.7415 21.2242 25.2854C20.7558 24.8293 20.1204 24.5731 19.458 24.5731Z" fill="#FD695A"/>
</symbol>

<symbol id="play-btn" height="20" width="20" viewBox="0 0 384 512"><!--!Font Awesome Free 6.5.1 by @fontawesome - https://fontawesome.com License - https://fontawesome.com/license/free Copyright 2023 Fonticons, Inc.--><path fill="#fd695a" d="M73 39c-14.8-9.1-33.4-9.4-48.5-.9S0 62.6 0 80V432c0 17.4 9.4 33.4 24.5 41.9s33.7 8.1 48.5-.9L361 297c14.3-8.7 23-24.2 23-41s-8.7-32.2-23-41L73 39z"/></symbol>

<symbol id="slack_cli" width="158" height="40" viewBox="0 0 158 40">
  <path d="M50.5742 31.3377L52.5401 26.8024C54.6643 28.3772 57.4865 29.1961 60.2768 29.1961C62.3378 29.1961 63.6379 28.4086 63.6379 27.2118C63.606 23.8732 51.3033 26.4874 51.2082 18.1095C51.1766 13.8575 54.9814 10.5819 60.3719 10.5819C63.5744 10.5819 66.7769 11.3693 69.0599 13.1646L67.2207 17.7945C65.1281 16.4717 62.528 15.5268 60.0548 15.5268C58.3741 15.5268 57.2645 16.3142 57.2645 17.322C57.2961 20.5977 69.6939 18.8024 69.8209 26.8024C69.8209 31.1488 66.1111 34.2038 60.7841 34.2038C56.8839 34.2038 53.301 33.2905 50.5742 31.3377ZM126.007 25.1646C125.024 26.8654 123.185 28.0308 121.061 28.0308C117.922 28.0308 115.385 25.511 115.385 22.3929C115.385 19.2748 117.922 16.7551 121.061 16.7551C123.185 16.7551 125.024 17.9205 126.007 19.6213L131.429 16.6292C129.4 13.0386 125.5 10.5819 121.061 10.5819C114.497 10.5819 109.17 15.8732 109.17 22.3929C109.17 28.9127 114.497 34.2038 121.061 34.2038C125.532 34.2038 129.4 31.7788 131.429 28.1566L126.007 25.1646ZM72.5477 0.786621H79.3333V33.763H72.5477V0.786621ZM134.093 0.786621V33.763H140.878V23.8732L148.932 33.763H157.62L147.378 22.015L156.859 11.0543H148.552L140.878 20.1567V0.786621H134.093ZM99.4994 25.2276C98.5164 26.8339 96.4871 28.0308 94.204 28.0308C91.065 28.0308 88.5283 25.511 88.5283 22.3929C88.5283 19.2748 91.065 16.7551 94.204 16.7551C96.4871 16.7551 98.5164 18.015 99.4994 19.6528V25.2276ZM99.4994 11.0543V13.7315C98.3895 11.8732 95.6311 10.5819 92.7457 10.5819C86.7845 10.5819 82.0917 15.8102 82.0917 22.3614C82.0917 28.9127 86.7845 34.2038 92.7457 34.2038C95.6311 34.2038 98.3895 32.9127 99.4994 31.0544V33.7316H106.285V11.0543H99.4994Z" fill="#3D3D3F"/>
  <path d="M8.62455 25.1958C8.62455 27.495 6.75378 29.3533 4.43912 29.3533C2.12443 29.3533 0.253662 27.495 0.253662 25.1958C0.253662 22.8966 2.12443 21.0383 4.43912 21.0383H8.62455V25.1958ZM10.7173 25.1958C10.7173 22.8966 12.588 21.0383 14.9027 21.0383C17.2174 21.0383 19.0882 22.8966 19.0882 25.1958V35.5894C19.0882 37.8888 17.2174 39.7469 14.9027 39.7469C12.588 39.7469 10.7173 37.8888 10.7173 35.5894V25.1958Z" fill="#E01E5A"/>
  <path d="M14.9027 8.50318C12.588 8.50318 10.7172 6.64493 10.7172 4.34571C10.7172 2.0465 12.588 0.188232 14.9027 0.188232C17.2174 0.188232 19.0881 2.0465 19.0881 4.34571V8.50318H14.9027ZM14.9027 10.6134C17.2174 10.6134 19.0881 12.4717 19.0881 14.7709C19.0881 17.0701 17.2174 18.9284 14.9027 18.9284H4.40737C2.09269 18.9284 0.221924 17.0701 0.221924 14.7709C0.221924 12.4717 2.09269 10.6134 4.40737 10.6134H14.9027Z" fill="#36C5F0"/>
  <path d="M31.6763 14.7709C31.6763 12.4717 33.5471 10.6134 35.8618 10.6134C38.1764 10.6134 40.0472 12.4717 40.0472 14.7709C40.0472 17.0701 38.1764 18.9284 35.8618 18.9284H31.6763V14.7709ZM29.5834 14.7709C29.5834 17.0701 27.7128 18.9284 25.3981 18.9284C23.0834 18.9284 21.2126 17.0701 21.2126 14.7709V4.34571C21.2126 2.0465 23.0834 0.188232 25.3981 0.188232C27.7128 0.188232 29.5834 2.0465 29.5834 4.34571V14.7709Z" fill="#2EB67D"/>
  <path d="M25.3981 31.4322C27.7128 31.4322 29.5834 33.2902 29.5834 35.5894C29.5834 37.8888 27.7128 39.7469 25.3981 39.7469C23.0834 39.7469 21.2126 37.8888 21.2126 35.5894V31.4322H25.3981ZM25.3981 29.3533C23.0834 29.3533 21.2126 27.495 21.2126 25.1958C21.2126 22.8966 23.0834 21.0383 25.3981 21.0383H35.8934C38.208 21.0383 40.0788 22.8966 40.0788 25.1958C40.0788 27.495 38.208 29.3533 35.8934 29.3533H25.3981Z" fill="#ECB22E"/>
</symbol>

<symbol id="descript_cli" width="197" height="46" viewBox="0 0 197 46">
  <path fill-rule="evenodd" clip-rule="evenodd" d="M0 41.8541C0 44.3687 1.64419 45.9992 4.17875 45.9992L16.3881 45.9995C23.6716 45.9995 29.6297 43.5548 33.6806 39.2752H0V41.8541ZM16.3881 -0.000258283L4.17875 -0.000488281C1.64419 -0.000488281 0 1.63043 0 4.14478V6.72375H33.6806C29.6297 2.44417 23.6716 -0.000258283 16.3881 -0.000258283ZM27.0432 29.5539C27.0432 31.588 28.379 32.9077 30.4385 32.9077H37.7545C38.5837 30.8663 39.1409 28.622 39.4 26.2001H30.4385C28.379 26.2001 27.0432 27.5196 27.0432 29.5539ZM16.9026 16.4617C16.9026 18.496 18.2384 19.8155 20.2979 19.8155H39.4C39.1409 17.3936 38.5837 15.1493 37.7545 13.1079H20.2979C18.2384 13.1079 16.9026 14.4273 16.9026 16.4617ZM20.2956 29.5539C20.2956 27.5196 18.9598 26.2001 16.9003 26.2001H0V32.9077H16.9003C18.9598 32.9077 20.2956 31.5883 20.2956 29.5539ZM10.155 16.4617C10.155 14.4273 8.81916 13.1079 6.75971 13.1079H0V19.8155H6.75971C8.81916 19.8155 10.155 18.496 10.155 16.4617Z" fill="#0062FF"/>
  <path fill-rule="evenodd" clip-rule="evenodd" d="M85.9204 22.3069C86.4644 19.6819 88.2219 18.3472 90.5318 18.3472C92.8218 18.3472 94.4963 19.7417 95.0303 22.3069H85.9204ZM90.6574 13.7996C84.776 13.7996 81.1177 18.4727 81.1177 24.1888C81.1177 30.1087 85.0268 34.4996 90.8367 34.4996C94.8436 34.4996 97.2742 32.6567 98.7785 30.3363L95.038 27.96C94.0975 29.2375 92.5929 29.9126 90.9802 29.9126C88.3417 29.9126 86.5751 28.6841 85.9728 26.2274H95.8454C95.8444 26.2305 95.8437 26.2337 95.8428 26.2371L99.4419 26.2581C99.5784 25.6117 99.6589 24.9437 99.6589 24.1888C99.6589 19.2098 96.5748 13.7996 90.6574 13.7996Z" fill="#0062FF"/>
  <path fill-rule="evenodd" clip-rule="evenodd" d="M66.0529 29.8997C62.4342 29.8997 60.2588 27.3251 60.2588 24.1495C60.2588 20.9739 62.476 18.3997 66.0529 18.3997C69.6299 18.3997 71.8471 20.9739 71.8471 24.1495C71.8471 27.3251 69.6717 29.8997 66.0529 29.8997ZM71.4528 16.8389C70.0078 15.1166 67.9563 14.0608 65.4095 14.0608C59.7174 14.0608 55.6235 18.6364 55.6235 24.2802C55.6235 29.9243 59.6785 34.4996 65.4095 34.4996C67.9563 34.4996 70.0078 33.4439 71.4528 31.7216V33.9965H76.4824V6.89966H71.4528V16.8389Z" fill="#0062FF"/>
  <path fill-rule="evenodd" clip-rule="evenodd" d="M115.039 23.8098C116.405 24.7565 117.271 26.1759 117.271 28.049C117.271 31.8345 114.699 34.4611 109.892 34.4611C105.368 34.4611 102.942 32.1605 101.976 29.8373L106.129 27.4311C106.129 27.4311 106.688 29.9418 109.818 29.9418C111.755 29.9418 112.352 29.0918 112.352 28.3413C112.352 27.9936 112.24 27.3538 110.861 26.8129C108.092 25.7269 102.738 25.2396 102.738 20.2851C102.738 16.2296 105.941 14.0666 109.892 14.0666C113.587 14.0666 115.96 16.348 116.861 18.1231L112.799 20.4783C112.799 20.4783 112.016 18.5083 109.929 18.5083C107.843 18.5083 107.656 19.7059 107.656 20.0534C107.656 21.0674 108.698 21.4837 110.936 22.1394C112.26 22.5275 113.621 22.8801 115.044 23.8062C115.042 23.8074 115.041 23.8086 115.039 23.8098ZM197 19.3968H192.789V27.4309C192.789 29.9418 195.248 29.4009 197 29.4009V33.92C197 33.92 196.077 34.0746 194.466 34.0746C190.889 34.0746 187.982 32.9933 187.982 27.4309V19.3968H184.74V14.6071H187.982V9.19946H192.789V14.6071H197V19.3968ZM129.221 29.594C131.216 29.594 132.75 28.6077 133.525 26.9897L137.692 29.4663C136.059 32.4343 133.017 34.4995 129.221 34.4995C123.464 34.4995 119.439 29.9341 119.439 24.3024C119.439 18.6705 123.501 14.1051 129.221 14.1051C132.961 14.1051 135.992 16.1365 137.642 19.0652L133.484 21.5982C132.694 20.0014 131.173 19.0105 129.221 19.0105C126.312 19.0105 124.246 21.3798 124.246 24.3024C124.246 27.2248 126.293 29.594 129.221 29.594Z" fill="#0062FF"/>
  <path fill-rule="evenodd" clip-rule="evenodd" d="M173.411 29.5415C170.279 29.5415 168.397 27.1188 168.397 24.1304C168.397 21.1421 170.315 18.7196 173.411 18.7196C176.506 18.7196 178.424 21.1421 178.424 24.1304C178.424 27.1188 176.542 29.5415 173.411 29.5415ZM174.008 13.9991C179.293 13.9991 183.094 18.5352 183.094 24.1304C183.094 29.7259 179.329 34.2616 174.008 34.2616C171.643 34.2616 169.738 33.2151 168.397 31.5076V41.3996H163.727V14.5366H168.397V16.7532C169.738 15.0458 171.643 13.9991 174.008 13.9991ZM154.749 33.7627V14.5748H159.419V33.7627H154.749ZM146.046 17.8524C146.948 15.5272 148.784 14.1973 151.549 14.1913V19.7174C148.307 19.3923 145.965 21.1011 146.05 25.1378C146.049 25.135 146.047 25.1319 146.046 25.1288V33.7627H141.376V14.575H146.046V17.8524ZM154.749 12.0141V6.89966H159.573V12.0141H154.749Z" fill="#0062FF"/>
</symbol>

<symbol id="etsy_cli" width="98" height="46" viewBox="0 0 98 46">
  <path d="M10.6547 3.50343V16.4582C10.6547 16.4582 15.2764 16.4582 17.75 16.2727C19.6951 15.9364 20.0532 15.7509 20.4112 13.8297L21.1273 11.0158H23.2428L22.8848 17.1654L23.0725 23.466H20.9395L20.4112 21.0057C19.8829 19.2548 19.1668 18.8991 17.75 18.7309C15.9772 18.5454 10.6547 18.5454 10.6547 18.5454V29.4108C10.6547 31.5002 11.7288 32.3928 14.2023 32.3928H21.6557C23.9589 32.3928 26.2599 32.2075 27.6943 28.889L29.622 24.6778H31.4122C31.2245 25.5532 30.3381 33.2684 30.1678 35.0042C30.1678 35.0042 23.4306 34.8359 20.599 34.8359H7.8231L0.199463 35.0042V33.1L2.67299 32.5611C4.46319 32.2075 4.99152 31.6856 4.99152 30.2862C4.99152 30.2862 5.17927 25.5532 5.17927 17.6678C5.17927 9.80182 4.99152 5.0667 4.99152 5.0667C4.99152 3.49909 4.46319 3.14548 2.67299 2.79186L0.199463 2.27436V0.353137L7.65281 0.504074H21.8434C24.675 0.504074 29.4495 -0.000488281 29.4495 -0.000488281C29.4495 -0.000488281 29.2792 2.96436 29.0915 9.97218H27.1463L26.4302 7.51189C25.7316 4.36162 24.6728 2.79401 22.7123 2.79401H11.5585C10.6547 2.79617 10.6547 2.96436 10.6547 3.50343ZM39.3764 4.88557H41.5094V12.247L48.7924 11.8934L48.4344 15.2291L41.3389 14.6901V27.6621C41.3389 31.3341 42.5835 32.7486 44.7165 32.7486C46.6442 32.7486 48.0764 31.6878 48.6045 30.8123L49.6612 32.0414C48.6045 34.4845 45.6027 35.7134 42.7536 35.7134C39.2237 35.7134 36.3571 33.6242 36.3571 29.5984V14.8733H32.1261V13.1224C35.676 12.7688 38.3197 10.6622 39.3764 4.88557ZM54.6411 27.4744L56.0558 30.8102C56.5842 32.2075 57.8285 33.6242 60.6601 33.6242C63.6794 33.6242 64.924 32.0414 64.924 30.1202C64.924 24.156 53.0365 25.909 53.0365 17.8554C53.0365 13.3079 56.7544 11.184 61.5463 11.184C63.6794 11.184 66.8691 11.5376 68.4714 12.2449C68.1133 13.9957 67.9257 16.2706 67.9257 18.0236L66.1682 18.1918L64.924 14.6879C64.5659 13.8297 63.1338 13.1203 61.3762 13.1203C59.2432 13.1203 57.1124 13.9957 57.1124 16.2706C57.1124 21.6957 69.3579 20.4817 69.3579 28.5353C69.3579 33.1 65.282 35.5431 60.3021 35.5431C56.5842 35.5431 52.8486 34.1286 52.8486 34.1286C53.2066 32.0392 53.0365 29.7666 52.8486 27.4744H54.6411ZM68.4736 44.2867C69.0021 42.3655 69.3602 39.9246 69.7182 37.6326L71.6633 37.4643L72.3794 41.1366C72.5495 42.0119 73.078 42.7191 74.495 42.7191C76.7981 42.7191 79.8174 41.3219 82.6642 36.4187C81.4025 33.4364 77.6843 23.8174 74.307 16.456C73.4208 14.5197 73.2504 14.3494 72.0213 13.9957L71.1174 13.6594V11.8912L76.4553 12.0767L83.0048 11.7231V13.4761L81.4025 13.8297C80.1579 13.9979 79.645 14.6879 79.645 15.3973C79.645 15.5827 79.645 15.7509 79.8151 16.1046C80.1557 17.1654 83.0048 25.0336 85.1378 30.2884C86.8954 26.6163 90.2726 18.3794 90.8008 16.98C90.9887 16.2727 91.1588 16.1046 91.1588 15.5827C91.1588 14.6901 90.6307 14.1682 89.4016 13.8319L88.1396 13.4761V11.7252L93.1195 11.8934L97.7239 11.7252V13.4761L96.8373 14.1661C95.0646 14.8733 94.877 15.0415 94.1761 16.456L86.3821 34.48C81.7606 44.8236 76.9683 45.6992 73.6062 45.6992C71.4754 45.7011 69.8731 45.1622 68.4736 44.2867Z" fill="#FB6F20"/>
</symbol>

<symbol id="spotify_cli" width="155" height="46" viewBox="0 0 155 46">
  <path d="M23.2497 0.0756836C10.4486 0.0756836 0.0708008 10.3416 0.0708008 23.005C0.0708008 35.6691 10.4486 45.9341 23.2497 45.9341C36.0522 45.9341 46.4288 35.6691 46.4288 23.005C46.4288 10.3424 36.0522 0.076779 23.2494 0.076779L23.2497 0.0756836ZM33.8793 33.1464C33.4643 33.8201 32.5731 34.0335 31.892 33.6201C26.4499 30.3316 19.5989 29.5869 11.5306 31.4104C10.7531 31.5857 9.97808 31.1038 9.80093 30.3344C9.62297 29.565 10.1081 28.7983 10.8876 28.6231C19.7171 26.6275 27.2907 27.4867 33.4004 31.1804C34.0814 31.5939 34.2975 32.4727 33.8793 33.1464ZM36.7164 26.903C36.1933 27.7441 35.0805 28.0097 34.2309 27.4922C28.0004 23.7038 18.5031 22.6067 11.1336 24.8196C10.1779 25.1052 9.16846 24.5723 8.87839 23.6285C8.59054 22.683 9.12945 21.6864 10.0835 21.3989C18.5014 18.8722 28.9664 20.0961 36.1213 24.4456C36.9712 24.9631 37.2395 26.0638 36.7164 26.9033V26.903ZM36.9599 20.4017C29.4895 16.0122 17.1643 15.6086 10.0318 17.7501C8.88643 18.0937 7.6752 17.4541 7.32813 16.3211C6.98102 15.1875 7.62705 13.9901 8.77321 13.6457C16.9608 11.1869 30.5718 11.6619 39.1725 16.7129C40.2049 17.3177 40.5427 18.6339 39.9311 19.6517C39.322 20.6708 37.9881 21.0068 36.9612 20.4017H36.9599ZM63.1329 21.2428C59.1304 20.2987 58.419 19.6361 58.419 18.2438C58.419 16.9284 59.6703 16.0432 61.5329 16.0432C63.3377 16.0432 65.1257 16.7154 67.0021 18.0992C67.0577 18.1411 67.1297 18.1578 67.1988 18.1468C67.2708 18.1364 67.3315 18.0984 67.3732 18.0412L69.3271 15.3162C69.4075 15.2039 69.3852 15.0492 69.2774 14.9635C67.0438 13.1912 64.5305 12.3295 61.591 12.3295C57.2704 12.3295 54.2508 14.8948 54.2508 18.5652C54.2508 22.5012 56.8554 23.8949 61.3559 24.9707C65.1838 25.8434 65.8316 26.5744 65.8316 27.881C65.8316 29.3295 64.525 30.2303 62.4216 30.2303C60.0852 30.2303 58.1784 29.45 56.0472 27.6264C55.9945 27.5799 55.9225 27.5607 55.856 27.5634C55.7843 27.5689 55.7204 27.6017 55.6761 27.6538L53.4842 30.2331C53.3928 30.3426 53.4038 30.5014 53.5091 30.5945C55.9891 32.7851 59.039 33.9405 62.3327 33.9405C66.9886 33.9405 69.9972 31.4242 69.9972 27.5278C70.0052 24.2402 68.0154 22.4194 63.141 21.2464L63.1329 21.2428ZM80.5317 17.3383C78.5138 17.3383 76.8585 18.1247 75.4913 19.736V17.9223C75.4913 17.7791 75.375 17.6625 75.231 17.6625H71.6466C71.5029 17.6625 71.3867 17.7791 71.3867 17.9223V38.0751C71.3867 38.2173 71.5029 38.3351 71.6466 38.3351H75.231C75.375 38.3351 75.4913 38.2173 75.4913 38.0751V31.7144C76.8585 33.2285 78.5138 33.9706 80.5317 33.9706C84.282 33.9706 88.0795 31.1147 88.0795 25.6552C88.085 20.1947 84.2875 17.338 80.5343 17.338L80.5317 17.3383ZM83.911 25.6552C83.911 28.4341 82.1811 30.3754 79.7011 30.3754C77.2518 30.3754 75.4028 28.3465 75.4028 25.6552C75.4028 22.9637 77.2518 20.9353 79.7011 20.9353C82.1398 20.935 83.911 22.9196 83.911 25.655V25.6552ZM97.8084 17.3383C92.9785 17.3383 89.1949 21.0172 89.1949 25.7147C89.1949 30.3617 92.9536 34.0006 97.7503 34.0006C102.597 34.0006 106.392 30.3344 106.392 25.6552C106.392 20.992 102.622 17.3388 97.8084 17.3388V17.3383ZM97.8084 30.4028C95.2399 30.4028 93.3024 28.3602 93.3024 25.6539C93.3024 22.9352 95.1737 20.9624 97.7503 20.9624C100.336 20.9624 102.284 23.0042 102.284 25.7133C102.284 28.4314 100.402 30.4028 97.8084 30.4028ZM116.705 17.6625H112.76V13.6742C112.76 13.5312 112.644 13.4146 112.5 13.4146H108.916C108.772 13.4146 108.653 13.5312 108.653 13.6742V17.6625H106.931C106.787 17.6625 106.671 17.7791 106.671 17.9223V20.969C106.671 21.1119 106.787 21.2288 106.931 21.2288H108.653V29.1132C108.653 32.2976 110.256 33.9131 113.419 33.9131C114.703 33.9131 115.769 33.6502 116.774 33.086C116.857 33.0423 116.907 32.9547 116.907 32.8618V29.9592C116.907 29.8716 116.86 29.7867 116.782 29.7402C116.705 29.6909 116.608 29.6882 116.528 29.7292C115.838 30.0715 115.171 30.2303 114.424 30.2303C113.275 30.2303 112.76 29.7128 112.76 28.5574V21.2302H116.705C116.849 21.2302 116.965 21.1136 116.965 20.9704V17.9239C116.97 17.7807 116.854 17.6641 116.707 17.6641L116.705 17.6625ZM130.444 17.6781V17.1882C130.444 15.7472 131.004 15.1045 132.255 15.1045C133.002 15.1045 133.602 15.2513 134.275 15.4731C134.358 15.4988 134.444 15.4859 134.51 15.4369C134.58 15.3879 134.618 15.3094 134.618 15.2261V12.2389C134.618 12.1247 134.546 12.0236 134.433 11.9899C133.724 11.781 132.816 11.5667 131.455 11.5667C128.147 11.5667 126.395 13.4105 126.395 16.8969V17.6471H124.673C124.529 17.6471 124.41 17.7638 124.41 17.9067V20.969C124.41 21.1119 124.529 21.2288 124.673 21.2288H126.395V33.3873C126.395 33.5326 126.514 33.6476 126.658 33.6476H130.24C130.386 33.6476 130.502 33.5326 130.502 33.3873V21.2297H133.849L138.975 33.3873C138.394 34.6634 137.821 34.918 137.04 34.918C136.409 34.918 135.742 34.7318 135.064 34.3622C135 34.3293 134.923 34.3239 134.856 34.343C134.787 34.3676 134.729 34.4168 134.701 34.4826L133.486 37.1193C133.428 37.2452 133.478 37.3905 133.6 37.456C134.867 38.1352 136.01 38.4255 137.425 38.4255C140.071 38.4255 141.535 37.2043 142.822 33.9239L149.039 18.0329C149.072 17.953 149.061 17.8626 149.011 17.7917C148.964 17.7213 148.884 17.6789 148.798 17.6789H145.067C144.954 17.6789 144.854 17.7493 144.818 17.853L140.995 28.6504L136.81 17.8459C136.771 17.7454 136.675 17.6789 136.567 17.6789H130.444V17.6781ZM122.479 17.6625H118.894C118.75 17.6625 118.631 17.7791 118.631 17.9223V33.3873C118.631 33.5326 118.75 33.6476 118.894 33.6476H122.479C122.622 33.6476 122.741 33.5326 122.741 33.3873V17.9234C122.741 17.7802 122.625 17.6636 122.479 17.6636V17.6625ZM120.707 10.6204C119.287 10.6204 118.136 11.7572 118.136 13.1616C118.136 14.5668 119.287 15.705 120.707 15.705C122.127 15.705 123.276 14.5668 123.276 13.1616C123.276 11.7575 122.124 10.6204 120.707 10.6204ZM152.1 22.6351C150.683 22.6351 149.578 21.5084 149.578 20.1402C149.578 18.7719 150.697 17.6324 152.114 17.6324C153.531 17.6324 154.635 18.7588 154.635 20.1259C154.635 21.4942 153.517 22.6351 152.1 22.6351ZM152.114 17.8804C150.821 17.8804 149.844 18.8963 149.844 20.1402C149.844 21.3835 150.816 22.3857 152.1 22.3857C153.393 22.3857 154.37 21.3707 154.37 20.1259C154.37 18.8826 153.398 17.8804 152.114 17.8804ZM152.673 20.3825L153.387 21.3704H152.784L152.142 20.4641H151.591V21.3704H151.087V18.7517H152.266C152.883 18.7517 153.287 19.063 153.287 19.5871C153.29 20.0164 153.038 20.2787 152.676 20.3825H152.673ZM152.247 19.201H151.591V20.0293H152.247C152.573 20.0293 152.77 19.8707 152.77 19.6147C152.77 19.3453 152.573 19.201 152.247 19.201Z" fill="#1ED760"/>
</symbol>

<symbol  id="logitech_cli" width="153" height="46" viewBox="0 0 153 46">
  <path d="M0 32.5377V0.673584H5.64393V32.5377H0Z" fill="#3D3D3F"/>
  <path d="M20.091 9.42163C12.8548 9.42163 7.84717 14.9394 7.84717 21.2551C7.84717 28.3037 13.2949 33.1595 20.1473 33.1595C26.6506 33.1595 32.2938 28.3931 32.2938 21.2399C32.2938 15.2247 27.6176 9.42163 20.091 9.42163ZM20.0246 14.8212C23.8115 14.8212 26.5989 17.7447 26.5989 21.2754C26.5989 25.0189 23.5257 27.7498 20.1268 27.7498C16.1106 27.7498 13.5831 24.5929 13.5831 21.2855C13.5831 17.6602 16.4367 14.8212 20.0246 14.8212Z" fill="#3D3D3F"/>
  <path d="M46.4743 9.42163C39.2382 9.42163 34.2305 14.9394 34.2305 21.2551C34.2305 28.3037 39.6782 33.1595 46.5307 33.1595C53.034 33.1595 58.6773 28.3931 58.6773 21.2399C58.6773 17.0275 56.8381 15.1585 56.8381 15.1585L58.4022 14.6265V10.0837H50.3863C50.3863 10.0837 48.6485 9.42163 46.4743 9.42163ZM46.408 14.8212C50.195 14.8212 52.9825 17.7447 52.9825 21.2754C52.9825 25.0189 49.9093 27.7498 46.5104 27.7498C42.4941 27.7498 39.9665 24.5929 39.9665 21.2855C39.9665 17.6602 42.82 14.8212 46.408 14.8212Z" fill="#3D3D3F"/>
  <path d="M52.9426 34.095C52.9426 37.8385 49.8694 40.5899 46.4705 40.5899C42.4542 40.5899 39.9167 37.4025 39.9167 34.095H34.1909C34.1909 41.1438 39.6387 45.9994 46.4908 45.9994C52.9945 45.9994 58.6377 41.2483 58.6377 34.095H52.9426Z" fill="#3D3D3F"/>
  <path d="M60.938 32.5378V10.0835H66.5819V32.5378H60.938Z" fill="#3D3D3F"/>
  <path d="M72.0621 32.5375V15.1127H69.0356V10.0832H72.0621V3.18799H77.7061V10.0832H80.8144V15.1127H77.7061V32.5375H72.0621Z" fill="#3D3D3F"/>
  <path d="M67.4855 3.70602C67.4855 5.75309 65.8122 7.41254 63.7481 7.41254C61.6841 7.41254 60.0107 5.75309 60.0107 3.70602C60.0107 1.65898 61.6841 -0.000488281 63.7481 -0.000488281C65.8122 -0.000488281 67.4855 1.65898 67.4855 3.70602Z" fill="#3D3D3F"/>
  <path d="M93.5034 9.40625C86.2328 9.40625 81.5459 14.9269 81.5459 21.4577C81.5459 28.2065 86.2483 33.1744 93.621 33.1744C100.498 33.1744 103.881 28.9157 103.881 28.9157L100.108 25.1689C100.108 25.1689 97.2598 28.216 93.6925 28.216C90.7188 28.216 88.3414 26.57 87.5116 23.5516H105.098V22.0103C105.098 15.8604 101.509 9.40625 93.5034 9.40625ZM93.3243 14.3343C95.9243 14.3343 98.5833 15.7137 99.1779 19.0089H87.3583C87.8266 16.6926 89.8697 14.3343 93.3243 14.3343Z" fill="#3D3D3F"/>
  <path d="M119.215 33.1773C111.924 33.1773 106.956 27.67 106.956 21.1765C106.956 14.4753 112.571 9.40186 119.192 9.40186C125.592 9.40186 128.869 13.8829 128.869 13.8829L124.931 17.7699C124.931 17.7699 122.651 14.8475 119.165 14.8475C115.302 14.8475 112.66 17.7785 112.66 21.2625C112.66 24.9412 115.47 27.7636 119.122 27.7636C122.664 27.7636 124.926 24.8459 124.926 24.8459L128.903 28.7307C128.903 28.7307 125.658 33.1773 119.215 33.1773Z" fill="#3D3D3F"/>
  <path d="M130.956 32.5538V0.592285H136.599V12.3351C136.599 12.3351 138.76 9.40184 143.461 9.40184C149.371 9.40184 152.795 13.7587 152.795 19.3311V32.5538H147.151V20.1771C147.151 16.4334 144.801 14.8803 142.197 14.8803C139.231 14.8803 136.599 16.5545 136.599 20.4668V32.5538H130.956Z" fill="#3D3D3F"/>
</symbol>

<symbol id="arrow-right" width="24" height="25" viewBox="0 0 24 25">
  <path d="M13.121 6.43829C12.9335 6.62582 12.8282 6.88013 12.8282 7.14529C12.8282 7.41046 12.9335 7.66477 13.121 7.85229L16.413 11.1453L6 11.1523C5.73478 11.1523 5.48043 11.2577 5.29289 11.4452C5.10536 11.6327 5 11.8871 5 12.1523C5 12.4175 5.10536 12.6719 5.29289 12.8594C5.48043 13.0469 5.73478 13.1523 6 13.1523L16.414 13.1453L13.121 16.4383C13.0255 16.5305 12.9493 16.6409 12.8969 16.7629C12.8445 16.8849 12.8169 17.0161 12.8157 17.1489C12.8146 17.2817 12.8399 17.4134 12.8902 17.5362C12.9405 17.6591 13.0147 17.7708 13.1086 17.8647C13.2025 17.9586 13.3141 18.0328 13.437 18.0831C13.5599 18.1334 13.6916 18.1587 13.8244 18.1575C13.9572 18.1564 14.0884 18.1288 14.2104 18.0764C14.3324 18.024 14.4428 17.9478 14.535 17.8523L18.121 14.2673C18.3996 13.9887 18.6207 13.658 18.7715 13.294C18.9222 12.93 18.9999 12.5398 18.9999 12.1458C18.9999 11.7518 18.9222 11.3616 18.7715 10.9976C18.6207 10.6336 18.3996 10.3029 18.121 10.0243L14.535 6.43829C14.3475 6.25082 14.0932 6.14551 13.828 6.14551C13.5628 6.14551 13.3085 6.25082 13.121 6.43829Z" fill="#3D3D3F"/>
</symbol>

<symbol id="rev_arrow-left" height="35" width="36" viewBox="0 0 448 512"><!--!Font Awesome Free 6.5.1 by @fontawesome - https://fontawesome.com License - https://fontawesome.com/license/free Copyright 2023 Fonticons, Inc.--><path fill="#404041" d="M9.4 233.4c-12.5 12.5-12.5 32.8 0 45.3l160 160c12.5 12.5 32.8 12.5 45.3 0s12.5-32.8 0-45.3L109.2 288 416 288c17.7 0 32-14.3 32-32s-14.3-32-32-32l-306.7 0L214.6 118.6c12.5-12.5 12.5-32.8 0-45.3s-32.8-12.5-45.3 0l-160 160z"/></symbol>

<symbol  id="rev_arrow-right" height="35" width="36" viewBox="0 0 448 512"><!--!Font Awesome Free 6.5.1 by @fontawesome - https://fontawesome.com License - https://fontawesome.com/license/free Copyright 2023 Fonticons, Inc.--><path fill="#404041" d="M438.6 278.6c12.5-12.5 12.5-32.8 0-45.3l-160-160c-12.5-12.5-32.8-12.5-45.3 0s-12.5 32.8 0 45.3L338.8 224 32 224c-17.7 0-32 14.3-32 32s14.3 32 32 32l306.7 0L233.4 393.4c-12.5 12.5-12.5 32.8 0 45.3s32.8 12.5 45.3 0l160-160z"/></symbol>

<symbol id="location"  height="24" width="24" viewBox="0 0 512 512"><!--!Font Awesome Free 6.5.1 by @fontawesome - https://fontawesome.com License - https://fontawesome.com/license/free Copyright 2023 Fonticons, Inc.--><path fill="#363853" d="M215.7 499.2C267 435 384 279.4 384 192C384 86 298 0 192 0S0 86 0 192c0 87.4 117 243 168.3 307.2c12.3 15.3 35.1 15.3 47.4 0zM192 128a64 64 0 1 1 0 128 64 64 0 1 1 0-128z"/></symbol>

<symbol id="phone" height="24" width="24" viewBox="0 0 512 512"><!--!Font Awesome Free 6.5.1 by @fontawesome - https://fontawesome.com License - https://fontawesome.com/license/free Copyright 2023 Fonticons, Inc.--><path fill="#363853" d="M280 0C408.1 0 512 103.9 512 232c0 13.3-10.7 24-24 24s-24-10.7-24-24c0-101.6-82.4-184-184-184c-13.3 0-24-10.7-24-24s10.7-24 24-24zm8 192a32 32 0 1 1 0 64 32 32 0 1 1 0-64zm-32-72c0-13.3 10.7-24 24-24c75.1 0 136 60.9 136 136c0 13.3-10.7 24-24 24s-24-10.7-24-24c0-48.6-39.4-88-88-88c-13.3 0-24-10.7-24-24zM117.5 1.4c19.4-5.3 39.7 4.6 47.4 23.2l40 96c6.8 16.3 2.1 35.2-11.6 46.3L144 207.3c33.3 70.4 90.3 127.4 160.7 160.7L345 318.7c11.2-13.7 30-18.4 46.3-11.6l96 40c18.6 7.7 28.5 28 23.2 47.4l-24 88C481.8 499.9 466 512 448 512C200.6 512 0 311.4 0 64C0 46 12.1 30.2 29.5 25.4l88-24z"/></symbol>

<symbol id="message" height="24" width="24" viewBox="0 0 512 512"><!--!Font Awesome Free 6.5.1 by @fontawesome - https://fontawesome.com License - https://fontawesome.com/license/free Copyright 2023 Fonticons, Inc.--><path fill="#363853" d="M64 112c-8.8 0-16 7.2-16 16v22.1L220.5 291.7c20.7 17 50.4 17 71.1 0L464 150.1V128c0-8.8-7.2-16-16-16H64zM48 212.2V384c0 8.8 7.2 16 16 16H448c8.8 0 16-7.2 16-16V212.2L322 328.8c-38.4 31.5-93.7 31.5-132 0L48 212.2zM0 128C0 92.7 28.7 64 64 64H448c35.3 0 64 28.7 64 64V384c0 35.3-28.7 64-64 64H64c-35.3 0-64-28.7-64-64V128z"/></symbol>

</svg>