<svg width="72" height="72" viewBox="0 0 72 72" fill="none" xmlns="http://www.w3.org/2000/svg">
<circle cx="35.9724" cy="35.5115" r="35.5193" fill="#BC5C56" fill-opacity="0.06"/>
<path d="M55.9413 35.018C55.9405 34.6123 55.7298 34.2359 55.3844 34.0229L51.3192 31.517L55.3887 28.9841C55.7319 28.7705 55.9407 28.3951 55.9413 27.991C55.942 27.5868 55.7342 27.2108 55.3916 26.9962L36.5636 15.1993C36.183 14.9609 35.6997 14.9609 35.3191 15.1993L16.4911 26.9962C16.1486 27.2108 15.9409 27.5868 15.9414 27.991C15.942 28.3952 16.1509 28.7706 16.4941 28.9841L20.5356 31.4996L16.4923 34.0268C16.1493 34.2412 15.9411 34.6172 15.9415 35.0217C15.9419 35.4261 16.1508 35.8018 16.4941 36.0155L20.5357 38.531L16.4923 41.0581C16.1498 41.2721 15.9417 41.6474 15.9415 42.0512C15.9413 42.455 16.149 42.8305 16.4912 43.0449L35.3192 54.8417C35.5095 54.9609 35.7255 55.0205 35.9414 55.0205C36.1573 55.0205 36.3734 54.9609 36.5636 54.8417L55.3916 43.0449C55.7349 42.8298 55.9428 42.4526 55.9413 42.0475C55.9398 41.6424 55.7292 41.2668 55.3844 41.0542L51.3192 38.5483L55.3887 36.0154C55.7331 35.8011 55.9422 35.4237 55.9413 35.018ZM19.3258 27.9861L35.9414 17.5754L52.557 27.9861C52.3974 28.0855 36.4176 38.0314 35.9414 38.3278L19.3258 27.9861ZM52.5494 42.0599L35.9414 52.4658L19.3225 42.0531L22.7513 39.91L35.3222 47.7342C35.5117 47.8522 35.7266 47.9112 35.9414 47.9112C36.1563 47.9112 36.3711 47.8522 36.5606 47.7342L49.0968 39.9316L52.5494 42.0599ZM35.9414 45.359L19.3277 35.0186L22.7513 32.8788L35.3222 40.703C35.5117 40.821 35.7266 40.8799 35.9414 40.8799C36.1563 40.8799 36.3711 40.821 36.5606 40.703L49.0968 32.9004L52.5441 35.0254C52.4488 35.0846 36.3813 45.0852 35.9414 45.359Z" fill="#FD695A" stroke="#FD695A" stroke-width="0.5"/>
</svg>
