<svg width="72" height="72" viewBox="0 0 72 72" fill="none" xmlns="http://www.w3.org/2000/svg">
<circle cx="35.5193" cy="35.5188" r="35.5193" fill="#68CDFD" fill-opacity="0.08"/>
<path d="M28.2569 38.9025L28.2568 38.9024C28.0758 38.7481 27.9717 38.5226 27.9717 38.2846C27.9717 38.0465 28.0764 37.8213 28.2566 37.6673L28.2569 37.667L31.8891 34.5742L31.8892 34.5741L32.0513 34.7644L28.2569 38.9025ZM28.2569 38.9025L31.8892 41.9954C31.8892 41.9954 31.8892 41.9954 31.8892 41.9954C32.0415 42.1251 32.2289 42.1891 32.4147 42.1891C32.6437 42.1891 32.8723 42.0922 33.0329 41.9035L33.0329 41.9035M28.2569 38.9025L33.0329 41.9035M33.0329 41.9035C33.3231 41.5626 33.2824 41.0505 32.9411 40.7599C32.9411 40.7599 32.9411 40.7599 32.941 40.7599L30.0344 38.2846L32.9409 35.8094C32.9409 35.8094 32.9409 35.8093 32.941 35.8093L33.0329 41.9035Z" fill="#53C8FF" stroke="#53C8FF" stroke-width="0.5"/>
<path d="M41.9653 38.2846L39.0587 40.7599L39.0585 40.76C38.7179 41.0504 38.6764 41.5623 38.967 41.9034C38.9671 41.9035 38.9672 41.9036 38.9672 41.9036L39.1575 41.7414L41.9653 38.2846ZM41.9653 38.2846L42.1581 38.1204L39.2207 35.6189C38.9849 35.4181 38.9564 35.0639 39.1575 34.8277C39.3583 34.5918 39.7128 34.5633 39.9484 34.7644L40.1105 34.5741L40.1106 34.5742C40.1106 34.5742 40.1107 34.5742 40.1107 34.5743L43.7428 37.667L43.7429 37.6671C43.9238 37.8213 44.028 38.0468 44.028 38.2846C44.028 38.5226 43.9239 38.7481 43.7429 38.9024L43.7428 38.9025L40.1105 41.9954M41.9653 38.2846L39.0587 35.8093L39.2206 35.6191L39.0587 35.8092C38.7176 35.5189 38.6766 35.0069 38.9671 34.6656L39.1574 34.8276L38.9671 34.6656L40.1105 41.9954M40.1105 41.9954C40.1105 41.9954 40.1105 41.9954 40.1105 41.9954L40.1105 41.9954Z" fill="#53C8FF" stroke="#53C8FF" stroke-width="0.5"/>
<path d="M34.546 44.4916L34.5466 44.4917C34.6019 44.5032 34.6578 44.5092 34.7141 44.5092C35.0897 44.5092 35.4265 44.2473 35.5072 43.8651L35.5072 43.865L37.7709 33.1169L37.7709 33.1169C37.8633 32.6782 37.5826 32.2481 37.1443 32.1557L37.1443 32.1557C36.7056 32.0634 36.2755 32.3441 36.1832 32.7823L36.1831 32.7823L33.9194 43.5304C33.827 43.9688 34.1077 44.3992 34.546 44.4916Z" fill="#53C8FF" stroke="#53C8FF" stroke-width="0.5"/>
<path d="M22.7689 50.3646H49.2311C51.4472 50.3646 53.25 48.5622 53.25 46.3458V23.8861C53.25 21.67 51.4472 19.8672 49.2311 19.8672H22.7689C20.5528 19.8672 18.75 21.67 18.75 23.8861V46.3458C18.75 48.5622 20.5528 50.3646 22.7689 50.3646ZM20.3726 23.8861C20.3726 22.5651 21.4479 21.4898 22.7689 21.4898H49.2311C50.5521 21.4898 51.6274 22.5651 51.6274 23.8861V46.3458C51.6274 47.6668 50.5521 48.742 49.2311 48.742H22.7689C21.4479 48.742 20.3726 47.6668 20.3726 46.3458V23.8861Z" fill="#53C8FF" stroke="#53C8FF" stroke-width="0.5"/>
<path d="M19.5613 29.3555H52.4387C52.8869 29.3555 53.25 28.9924 53.25 28.5442C53.25 28.0965 52.8869 27.7329 52.4387 27.7329H19.5613C19.1131 27.7329 18.75 28.0965 18.75 28.5442C18.75 28.9924 19.1131 29.3555 19.5613 29.3555Z" fill="#53C8FF" stroke="#53C8FF" stroke-width="0.5"/>
<path d="M29.877 26.4194C28.8978 26.4194 28.1006 25.6222 28.1006 24.6431C28.1006 23.6636 28.8978 22.8667 29.877 22.8667C30.8564 22.8667 31.6533 23.6636 31.6533 24.6431C31.6533 25.6222 30.8564 26.4194 29.877 26.4194ZM29.877 23.9893C29.5167 23.9893 29.2232 24.2825 29.2232 24.6431C29.2232 25.0036 29.5167 25.2968 29.877 25.2968C30.2375 25.2968 30.5307 25.0036 30.5307 24.6431C30.5307 24.2825 30.2375 23.9893 29.877 23.9893Z" fill="#53C8FF"/>
<path d="M24.4189 26.4023C23.4395 26.4023 22.6426 25.6055 22.6426 24.626C22.6426 23.6465 23.4395 22.8496 24.4189 22.8496C25.3984 22.8496 26.1953 23.6465 26.1953 24.626C26.1953 25.6055 25.3984 26.4023 24.4189 26.4023ZM24.4189 23.9723C24.0587 23.9723 23.7652 24.2658 23.7652 24.626C23.7652 24.9865 24.0587 25.2797 24.4189 25.2797C24.7795 25.2797 25.0727 24.9865 25.0727 24.626C25.0727 24.2658 24.7795 23.9723 24.4189 23.9723Z" fill="#53C8FF"/>
<path d="M35.3351 26.4367C34.356 26.4367 33.5591 25.6398 33.5591 24.6603C33.5591 23.6812 34.356 22.8843 35.3351 22.8843C36.3146 22.8843 37.1115 23.6812 37.1115 24.6603C37.1115 25.6398 36.3146 26.4367 35.3351 26.4367ZM35.3351 24.0066C34.9749 24.0066 34.6817 24.2998 34.6817 24.6603C34.6817 25.0209 34.9749 25.3141 35.3351 25.3141C35.6957 25.3141 35.9889 25.0209 35.9889 24.6603C35.9889 24.2998 35.6957 24.0066 35.3351 24.0066Z" fill="#53C8FF"/>
</svg>
